<mxfile host="app.diagrams.net" modified="2024-05-30T10:25:16.623Z" agent="Mozilla/5.0 (Windows NT 10.0; Win64; x64) AppleWebKit/537.36 (KHTML, like Gecko) Chrome/125.0.0.0 Safari/537.36 Edg/125.0.0.0" etag="5CnCTdLDp2cKdlS0_bnz" version="24.4.10" type="onedrive">
  <diagram name="ページ1" id="sGsbtiMWJ6A-nO1lsWk1">
    <mxGraphModel grid="0" page="0" gridSize="10" guides="1" tooltips="1" connect="1" arrows="1" fold="1" pageScale="1" pageWidth="827" pageHeight="1169" math="0" shadow="0">
      <root>
        <mxCell id="0" />
        <mxCell id="1" parent="0" />
        <mxCell id="rgHb6Y3hXM69cQYunaPX-12" style="edgeStyle=none;curved=1;rounded=0;orthogonalLoop=1;jettySize=auto;html=1;exitX=0.5;exitY=1;exitDx=0;exitDy=0;entryX=0.5;entryY=0;entryDx=0;entryDy=0;fontSize=12;startSize=8;endSize=8;" edge="1" parent="1" source="rgHb6Y3hXM69cQYunaPX-1" target="rgHb6Y3hXM69cQYunaPX-2">
          <mxGeometry relative="1" as="geometry" />
        </mxCell>
        <mxCell id="rgHb6Y3hXM69cQYunaPX-1" value="関数csvreader(filename,list)&lt;div&gt;開始&lt;/div&gt;" style="rounded=0;whiteSpace=wrap;html=1;" vertex="1" parent="1">
          <mxGeometry x="59" y="-158" width="120" height="60" as="geometry" />
        </mxCell>
        <mxCell id="rgHb6Y3hXM69cQYunaPX-13" style="edgeStyle=none;curved=1;rounded=0;orthogonalLoop=1;jettySize=auto;html=1;exitX=0.5;exitY=1;exitDx=0;exitDy=0;entryX=0.5;entryY=0;entryDx=0;entryDy=0;fontSize=12;startSize=8;endSize=8;" edge="1" parent="1" source="rgHb6Y3hXM69cQYunaPX-2" target="rgHb6Y3hXM69cQYunaPX-3">
          <mxGeometry relative="1" as="geometry" />
        </mxCell>
        <mxCell id="rgHb6Y3hXM69cQYunaPX-2" value="open(fike,&quot;r&quot;) as f" style="rounded=1;whiteSpace=wrap;html=1;" vertex="1" parent="1">
          <mxGeometry x="59" y="-77" width="120" height="60" as="geometry" />
        </mxCell>
        <mxCell id="rgHb6Y3hXM69cQYunaPX-14" style="edgeStyle=none;curved=1;rounded=0;orthogonalLoop=1;jettySize=auto;html=1;exitX=0.5;exitY=1;exitDx=0;exitDy=0;fontSize=12;startSize=8;endSize=8;" edge="1" parent="1" source="rgHb6Y3hXM69cQYunaPX-3" target="rgHb6Y3hXM69cQYunaPX-4">
          <mxGeometry relative="1" as="geometry" />
        </mxCell>
        <mxCell id="rgHb6Y3hXM69cQYunaPX-3" value="csvr = csv.reader(f)" style="rounded=1;whiteSpace=wrap;html=1;" vertex="1" parent="1">
          <mxGeometry x="59" y="4" width="120" height="60" as="geometry" />
        </mxCell>
        <mxCell id="rgHb6Y3hXM69cQYunaPX-15" style="edgeStyle=none;curved=1;rounded=0;orthogonalLoop=1;jettySize=auto;html=1;exitX=0.5;exitY=1;exitDx=0;exitDy=0;entryX=0.5;entryY=0;entryDx=0;entryDy=0;fontSize=12;startSize=8;endSize=8;" edge="1" parent="1" source="rgHb6Y3hXM69cQYunaPX-4" target="rgHb6Y3hXM69cQYunaPX-6">
          <mxGeometry relative="1" as="geometry" />
        </mxCell>
        <mxCell id="rgHb6Y3hXM69cQYunaPX-4" value="next(csvr)" style="rounded=1;whiteSpace=wrap;html=1;" vertex="1" parent="1">
          <mxGeometry x="59" y="85" width="120" height="60" as="geometry" />
        </mxCell>
        <mxCell id="rgHb6Y3hXM69cQYunaPX-16" style="edgeStyle=none;curved=1;rounded=0;orthogonalLoop=1;jettySize=auto;html=1;exitX=0.5;exitY=1;exitDx=0;exitDy=0;entryX=0.5;entryY=0;entryDx=0;entryDy=0;fontSize=12;startSize=8;endSize=8;" edge="1" parent="1" source="rgHb6Y3hXM69cQYunaPX-6" target="rgHb6Y3hXM69cQYunaPX-7">
          <mxGeometry relative="1" as="geometry" />
        </mxCell>
        <mxCell id="rgHb6Y3hXM69cQYunaPX-22" style="edgeStyle=none;curved=1;rounded=0;orthogonalLoop=1;jettySize=auto;html=1;exitX=1;exitY=0.5;exitDx=0;exitDy=0;fontSize=12;startSize=8;endSize=8;" edge="1" parent="1" source="rgHb6Y3hXM69cQYunaPX-6">
          <mxGeometry relative="1" as="geometry">
            <mxPoint x="190" y="206" as="targetPoint" />
          </mxGeometry>
        </mxCell>
        <mxCell id="rgHb6Y3hXM69cQYunaPX-6" value="for&lt;div&gt;row in csvr&lt;/div&gt;" style="rhombus;whiteSpace=wrap;html=1;" vertex="1" parent="1">
          <mxGeometry x="48.5" y="166" width="141" height="80" as="geometry" />
        </mxCell>
        <mxCell id="rgHb6Y3hXM69cQYunaPX-17" style="edgeStyle=none;curved=1;rounded=0;orthogonalLoop=1;jettySize=auto;html=1;exitX=0.5;exitY=1;exitDx=0;exitDy=0;fontSize=12;startSize=8;endSize=8;" edge="1" parent="1" source="rgHb6Y3hXM69cQYunaPX-7">
          <mxGeometry relative="1" as="geometry">
            <mxPoint x="118.91304347826099" y="421.405814792799" as="targetPoint" />
          </mxGeometry>
        </mxCell>
        <mxCell id="rgHb6Y3hXM69cQYunaPX-18" style="edgeStyle=none;curved=1;rounded=0;orthogonalLoop=1;jettySize=auto;html=1;exitX=0.5;exitY=1;exitDx=0;exitDy=0;entryX=0.5;entryY=0;entryDx=0;entryDy=0;fontSize=12;startSize=8;endSize=8;" edge="1" parent="1" source="rgHb6Y3hXM69cQYunaPX-7" target="rgHb6Y3hXM69cQYunaPX-8">
          <mxGeometry relative="1" as="geometry" />
        </mxCell>
        <mxCell id="rgHb6Y3hXM69cQYunaPX-7" value="number = int(row[0])" style="rounded=1;whiteSpace=wrap;html=1;" vertex="1" parent="1">
          <mxGeometry x="61" y="267" width="120" height="60" as="geometry" />
        </mxCell>
        <mxCell id="rgHb6Y3hXM69cQYunaPX-19" style="edgeStyle=none;curved=1;rounded=0;orthogonalLoop=1;jettySize=auto;html=1;exitX=0.5;exitY=1;exitDx=0;exitDy=0;entryX=0.5;entryY=0;entryDx=0;entryDy=0;fontSize=12;startSize=8;endSize=8;" edge="1" parent="1" source="rgHb6Y3hXM69cQYunaPX-8" target="rgHb6Y3hXM69cQYunaPX-9">
          <mxGeometry relative="1" as="geometry" />
        </mxCell>
        <mxCell id="rgHb6Y3hXM69cQYunaPX-8" value="name = str(row[1])" style="rounded=1;whiteSpace=wrap;html=1;" vertex="1" parent="1">
          <mxGeometry x="59" y="348" width="120" height="60" as="geometry" />
        </mxCell>
        <mxCell id="rgHb6Y3hXM69cQYunaPX-20" style="edgeStyle=none;curved=1;rounded=0;orthogonalLoop=1;jettySize=auto;html=1;exitX=0.5;exitY=1;exitDx=0;exitDy=0;entryX=0.5;entryY=0;entryDx=0;entryDy=0;fontSize=12;startSize=8;endSize=8;" edge="1" parent="1" source="rgHb6Y3hXM69cQYunaPX-9" target="rgHb6Y3hXM69cQYunaPX-10">
          <mxGeometry relative="1" as="geometry" />
        </mxCell>
        <mxCell id="rgHb6Y3hXM69cQYunaPX-9" value="score = int(row[2])" style="rounded=1;whiteSpace=wrap;html=1;" vertex="1" parent="1">
          <mxGeometry x="59" y="429" width="120" height="60" as="geometry" />
        </mxCell>
        <mxCell id="rgHb6Y3hXM69cQYunaPX-21" style="edgeStyle=none;curved=1;rounded=0;orthogonalLoop=1;jettySize=auto;html=1;exitX=0.5;exitY=1;exitDx=0;exitDy=0;fontSize=12;startSize=8;endSize=8;" edge="1" parent="1" source="rgHb6Y3hXM69cQYunaPX-10" target="rgHb6Y3hXM69cQYunaPX-11">
          <mxGeometry relative="1" as="geometry" />
        </mxCell>
        <mxCell id="rgHb6Y3hXM69cQYunaPX-10" value="aditem(list,number,&lt;div&gt;name,score)&lt;/div&gt;" style="rounded=1;whiteSpace=wrap;html=1;" vertex="1" parent="1">
          <mxGeometry x="59" y="510" width="120" height="60" as="geometry" />
        </mxCell>
        <mxCell id="rgHb6Y3hXM69cQYunaPX-11" value="終了" style="rounded=0;whiteSpace=wrap;html=1;" vertex="1" parent="1">
          <mxGeometry x="61" y="591" width="120" height="60" as="geometry" />
        </mxCell>
        <mxCell id="rgHb6Y3hXM69cQYunaPX-23" value="" style="endArrow=none;html=1;rounded=0;fontSize=12;startSize=8;endSize=8;curved=1;entryX=1;entryY=0.5;entryDx=0;entryDy=0;" edge="1" parent="1" target="rgHb6Y3hXM69cQYunaPX-6">
          <mxGeometry width="50" height="50" relative="1" as="geometry">
            <mxPoint x="237" y="206" as="sourcePoint" />
            <mxPoint x="223" y="365" as="targetPoint" />
          </mxGeometry>
        </mxCell>
        <mxCell id="rgHb6Y3hXM69cQYunaPX-24" value="" style="endArrow=none;html=1;rounded=0;fontSize=12;startSize=8;endSize=8;curved=1;" edge="1" parent="1">
          <mxGeometry width="50" height="50" relative="1" as="geometry">
            <mxPoint x="235" y="619" as="sourcePoint" />
            <mxPoint x="235" y="206" as="targetPoint" />
          </mxGeometry>
        </mxCell>
        <mxCell id="rgHb6Y3hXM69cQYunaPX-25" value="" style="endArrow=classic;html=1;rounded=0;fontSize=12;startSize=8;endSize=8;curved=1;entryX=1;entryY=0.5;entryDx=0;entryDy=0;" edge="1" parent="1" target="rgHb6Y3hXM69cQYunaPX-11">
          <mxGeometry width="50" height="50" relative="1" as="geometry">
            <mxPoint x="237" y="618" as="sourcePoint" />
            <mxPoint x="223" y="365" as="targetPoint" />
          </mxGeometry>
        </mxCell>
      </root>
    </mxGraphModel>
  </diagram>
</mxfile>
